#N canvas 0 36 1440 804 16;
#X obj 182 116 oscparse;
#X obj 190 46 netreceive -u -b 8000;
#X obj 189 312 float;
#X text 424 45 8000 is the port number;
#X obj 189 204 route list;
#X text 297 123 parse the OSC message into a list of arguments/values.;
#X obj 819 243 route 0 1 2 3 4;
#X obj 270 314 float;
#X obj 189 276 unpack s f;
#X obj 187 353 pack f f;
#N canvas 0 22 450 278 (subpatch) 0;
#X text 0 0 plugdatainfo <?xml version="1.0" encoding="UTF-8"?> <PlugDataInfo/>;
#X coords 0 1 100 -1 1 1 1;
#X restore 0 0 graph;
#X obj 180 466 res_trial;
#X obj 704 139 adc~;
#X obj 289 463 res_trial;
#X obj 379 463 res_trial;
#X obj 474 466 res_trial;
#X obj 568 462 res_trial;
#X obj 679 314 * -1;
#X obj 747 314 * -1;
#X obj 810 314 * -1;
#X obj 870 314 * -1;
#X obj 933 312 * -1;
#X obj 1079 314 * -1;
#X obj 1147 314 * -1;
#X obj 1210 314 * -1;
#X obj 1270 314 * -1;
#X obj 1335 314 * -1;
#X obj 956 258 route 6 7 8 9 10;
#X obj 667 462 res_trial;
#X obj 756 462 res_trial;
#X obj 846 462 res_trial;
#X obj 930 466 res_trial;
#X obj 1028 463 res_trial;
#X obj 1138 474 pack f f f f f f f f f f;
#X msg 512 695 \$1 1000;
#X obj 990 124 vsl 18 80 -100 0 0 0 empty empty empty 0 -9 0 10 #dcdcdc #000000 #000000 0 1;
#X obj 396 783 *~;
#X obj 651 768 *~;
#X obj 512 731 line~;
#X obj 900 722 - 1;
#X obj 933 722 * -1;
#X msg 969 722 \$1 1000;
#X obj 916 768 line~;
#X obj 846 833 *~;
#X obj 582 167 *~ 0.3;
#X obj 356 193 print;
#X obj 1443 537 metro;
#X obj 1290 716 *~;
#X obj 1495 593 bng 25 250 50 0 empty empty empty 17 7 0 10 #181818 #fcfcfc #fcfcfc;
#X obj 1394 565 * 2;
#X obj 1151 609 nbx 4 21 -1e+37 1e+37 0 0 empty empty empty 0 -8 0 10 #181818 #fcfcfc #fcfcfc 0 256;
#X obj 1459 277 nbx 4 21 -1e+37 1e+37 0 0 empty empty empty 0 -8 0 10 #181818 #fcfcfc #fcfcfc 0 256;
#X obj 1632 314 -;
#X obj 1547 294 f 0;
#X obj 1559 242 t f b f;
#X obj 1503 339 * -1;
#X obj 1341 498 bng 25 250 50 0 empty empty empty 17 7 0 10 #181818 #fcfcfc #fcfcfc;
#X obj 1532 391 clip -50 50;
#X obj 1483 470 -;
#X obj 1398 450 f 0;
#X obj 1410 398 t f b f;
#X obj 1262 204 nbx 4 21 -1e+37 1e+37 0 0 empty empty empty 0 -8 0 10 #181818 #fcfcfc #fcfcfc 0 256;
#X obj 623 867 clip~ -0.8 0.8;
#X obj 730 867 clip~ -0.8 0.8;
#X obj 730 833 *~;
#X obj 612 833 *~;
#X obj 916 690 nbx 4 21 -1e+37 1e+37 0 0 empty empty empty 0 -8 0 10 #181818 #fcfcfc #fcfcfc 0 256;
#X obj 396 822 *~ 0.5;
#X obj 484 822 *~ 0.5;
#X obj 810 765 line~;
#X msg 810 718 \$1 1000;
#X obj 1021 783 *~ 0.2;
#X msg 1625 466 \$1 1000;
#X obj 1544 609 line~;
#X obj 1411 223 loadbang;
#X obj 141 8 bng 25 250 50 0 empty empty empty 17 7 0 10 #181818 #fcfcfc #fcfcfc;
#X obj 1290 595 nbx 4 21 -1e+37 1e+37 0 0 empty empty empty 0 -8 0 10 #181818 #fcfcfc #fcfcfc 0 256;
#X obj 846 907 *~ 2;
#X obj 1319 664 osc~ 367;
#X obj 668 953 rev3~ 90 85 6000 45;
#X obj 1406 676 else/adsr~ 4 10 0.5 10;
#X obj 1088 548 else/sum;
#X obj 581 657 cyclone/scale 0 1000 1 0;
#X obj 1578 431 cyclone/scale -50 50 400 10;
#X obj 1033 690 scale 0 1000 0.1 0.4;
#X obj -1028 -594 dac~;
#X obj 998 592 abs;
#X obj 883 658 cyclone/scale 0 50 0.2 3;
#X floatatom 1044 610 5 0 0 0 - - - 0;
#X obj 445 242 else/compress~ -50 10 5 5 30 256;
#X obj 975 840 bng 24 250 50 0 empty empty empty 0 -12 0 16 #fcfcfc #000000 #000000;
#X obj 1044 856 delay 2500;
#X obj 1039 930 main_looper;
#X obj 1070 807 sel 1;
#X obj 1001 977 else/pitch.shift~;
#X obj 1244 895 random 600;
#X obj 1241 930 * -1;
#X obj 1044 898 bng 24 250 50 0 empty empty empty 0 -12 0 16 #fcfcfc #000000 #000000;
#X obj 1143 790 < 0;
#X obj 341 1027 dac~ 1 2;
#X obj 1004 -38 loadbang;
#X msg 1005 11 \; pd dsp 1;
#X obj 389 947 *~ 0.15;
#X obj 457 955 *~ 0.15;
#X obj 917 1008 *~ 6;
#X obj 1212 -63 route 11;
#X floatatom 1207 -12 5 0 0 0 - - - 0;
#X obj 1182 43 scale 0 100 0 1;
#X connect 0 0 4 0;
#X connect 0 0 45 0;
#X connect 1 0 0 0;
#X connect 2 0 9 0;
#X connect 4 0 8 0;
#X connect 6 0 17 0;
#X connect 6 1 18 0;
#X connect 6 2 19 0;
#X connect 6 3 20 0;
#X connect 6 4 21 0;
#X connect 6 5 27 0;
#X connect 7 0 9 1;
#X connect 8 0 2 0;
#X connect 8 1 7 0;
#X connect 9 0 6 0;
#X connect 9 0 105 0;
#X connect 11 0 36 0;
#X connect 11 1 37 0;
#X connect 12 0 43 0;
#X connect 12 0 44 0;
#X connect 13 0 36 0;
#X connect 13 1 37 0;
#X connect 14 0 36 0;
#X connect 14 1 37 0;
#X connect 15 0 36 0;
#X connect 15 1 37 0;
#X connect 16 0 36 0;
#X connect 16 1 37 0;
#X connect 17 0 11 0;
#X connect 17 0 33 0;
#X connect 18 0 33 1;
#X connect 18 0 13 1;
#X connect 19 0 33 2;
#X connect 19 0 14 0;
#X connect 20 0 33 3;
#X connect 20 0 15 1;
#X connect 21 0 33 4;
#X connect 21 0 16 1;
#X connect 22 0 33 5;
#X connect 22 0 28 1;
#X connect 23 0 33 6;
#X connect 23 0 29 1;
#X connect 24 0 33 7;
#X connect 24 0 30 1;
#X connect 25 0 33 8;
#X connect 25 0 31 1;
#X connect 26 0 33 9;
#X connect 26 0 32 1;
#X connect 27 0 22 0;
#X connect 27 1 23 0;
#X connect 27 2 24 0;
#X connect 27 3 25 0;
#X connect 27 4 26 0;
#X connect 28 0 36 0;
#X connect 28 1 37 0;
#X connect 29 0 36 0;
#X connect 29 1 37 0;
#X connect 30 0 36 0;
#X connect 30 1 37 0;
#X connect 31 0 36 0;
#X connect 31 1 37 0;
#X connect 32 0 36 0;
#X connect 32 1 37 0;
#X connect 33 0 81 0;
#X connect 34 0 38 0;
#X connect 36 0 65 0;
#X connect 36 0 67 0;
#X connect 37 0 64 0;
#X connect 37 0 68 0;
#X connect 38 0 36 1;
#X connect 38 0 37 1;
#X connect 39 0 40 0;
#X connect 40 0 41 0;
#X connect 41 0 42 0;
#X connect 42 0 43 1;
#X connect 43 0 77 0;
#X connect 44 0 89 0;
#X connect 46 0 48 0;
#X connect 47 0 71 0;
#X connect 48 0 80 0;
#X connect 49 0 46 1;
#X connect 49 0 91 1;
#X connect 49 0 92 2;
#X connect 50 0 54 0;
#X connect 51 0 57 0;
#X connect 51 0 60 0;
#X connect 51 0 61 0;
#X connect 51 0 86 0;
#X connect 52 0 55 0;
#X connect 53 0 52 0;
#X connect 54 0 53 1;
#X connect 54 1 53 0;
#X connect 54 2 52 1;
#X connect 55 0 51 0;
#X connect 56 0 46 0;
#X connect 57 0 83 0;
#X connect 58 0 76 0;
#X connect 59 0 58 0;
#X connect 60 0 59 1;
#X connect 60 1 59 0;
#X connect 60 2 58 1;
#X connect 61 0 11 2;
#X connect 61 0 32 2;
#X connect 61 0 31 2;
#X connect 61 0 30 2;
#X connect 61 0 29 2;
#X connect 61 0 28 2;
#X connect 61 0 16 2;
#X connect 61 0 15 2;
#X connect 61 0 14 2;
#X connect 61 0 13 2;
#X connect 62 0 79 0;
#X connect 63 0 79 1;
#X connect 64 0 63 0;
#X connect 65 0 62 0;
#X connect 67 0 102 0;
#X connect 68 0 103 0;
#X connect 69 0 65 1;
#X connect 69 0 64 1;
#X connect 70 0 69 0;
#X connect 71 0 102 0;
#X connect 71 0 103 0;
#X connect 72 0 73 0;
#X connect 73 0 80 1;
#X connect 74 0 56 0;
#X connect 76 0 98 0;
#X connect 77 0 102 0;
#X connect 77 0 103 0;
#X connect 78 0 47 0;
#X connect 79 0 102 0;
#X connect 79 1 103 0;
#X connect 80 0 47 1;
#X connect 81 0 49 0;
#X connect 81 0 50 0;
#X connect 81 0 82 0;
#X connect 81 0 84 0;
#X connect 82 0 34 0;
#X connect 82 0 39 0;
#X connect 83 0 72 0;
#X connect 84 0 71 1;
#X connect 86 0 87 0;
#X connect 86 0 88 0;
#X connect 87 0 66 0;
#X connect 87 0 70 0;
#X connect 89 0 11 1;
#X connect 89 0 13 0;
#X connect 89 0 14 1;
#X connect 89 0 15 0;
#X connect 89 0 16 0;
#X connect 89 0 28 0;
#X connect 89 0 29 0;
#X connect 89 0 30 0;
#X connect 89 0 31 0;
#X connect 89 0 32 0;
#X connect 89 0 92 1;
#X connect 89 1 35 0;
#X connect 90 0 91 0;
#X connect 90 0 92 0;
#X connect 90 0 95 0;
#X connect 91 0 97 0;
#X connect 92 0 94 0;
#X connect 93 0 90 0;
#X connect 94 0 104 0;
#X connect 95 0 96 0;
#X connect 96 0 94 1;
#X connect 97 0 92 0;
#X connect 98 0 93 0;
#X connect 100 0 101 0;
#X connect 102 0 99 0;
#X connect 103 0 99 1;
#X connect 104 0 102 0;
#X connect 104 0 103 0;
#X connect 105 0 106 0;
#X connect 106 0 107 0;
#X connect 107 0 102 1;
#X connect 107 0 103 1;
