#N canvas 0 96 1440 804 12;
#N canvas 0 22 450 278 (subpatch) 0;
#X text 0 0 plugdatainfo <?xml version="1.0" encoding="UTF-8"?> <PlugDataInfo/>;
#X coords 0 1 100 -1 1 1 1;
#X restore 0 0 graph;
#X obj 796 743 *~ 0.5;
#X obj 780 824 bob~;
#X obj 916 69 inlet;
#X obj 859 397 mtof;
#X obj 792 439 * 0.5;
#X obj 482 616 loadbang;
#X obj 624 67 inlet~;
#X obj 775 938 outlet~;
#X obj 879 941 outlet~;
#X obj 1049 554 line~;
#X obj 792 567 line~, f 12;
#X obj 872 548 line~;
#X msg 872 497 \$1 1000;
#X msg 1059 505 \$1 2000;
#X msg 792 497 \$1 5000;
#X obj 906 439 * 3;
#X obj 988 321 scaler;
#X msg 634 760 9000;
#X obj 1239 227 sel 0;
#X obj 1316 439 spigot;
#X obj 1232 170 t b f;
#X obj 1199 439 spigot;
#X obj 1309 258 nbx 4 21 -1e+37 1e+37 0 0 empty empty empty 0 -8 0 10 #181818 #fcfcfc #fcfcfc 0 256;
#X obj 1274 298 * 0;
#X obj 1213 262 f 1;
#X obj 392 439 nbx 4 21 -1e+37 1e+37 0 0 empty empty empty 0 -8 0 10 #181818 #fcfcfc #fcfcfc 0 256;
#X obj 1228 298 * 0;
#X obj 952 236 f;
#X obj 1228 67 inlet;
#X msg 1052 797 \$1 2000;
#X obj 997 854 line;
#X obj 790 889 rev3~ 100 90 6000 50;
#X obj 924 789 osc~ 0.1;
#X obj 655 630 else/resonant2~ 220 500 1000;
#X obj 863 630 else/resonant2~ 440 500 1000;
#X obj 1083 630 else/resonant2~ 880 550 1000;
#X obj 793 170 else/floor;
#X obj 987 117 cyclone/scale 0 50 85 95;
#X obj 793 119 cyclone/scale 0 100 60 45;
#X connect 1 0 2 0;
#X connect 2 0 32 0;
#X connect 3 0 38 0;
#X connect 3 0 39 0;
#X connect 4 0 5 0;
#X connect 4 0 13 0;
#X connect 4 0 16 0;
#X connect 5 0 15 0;
#X connect 6 0 18 0;
#X connect 7 0 34 0;
#X connect 7 0 35 0;
#X connect 7 0 36 0;
#X connect 10 0 36 1;
#X connect 11 0 34 1;
#X connect 12 0 35 1;
#X connect 13 0 12 0;
#X connect 14 0 10 0;
#X connect 15 0 11 0;
#X connect 16 0 14 0;
#X connect 17 0 22 0;
#X connect 18 0 2 1;
#X connect 19 0 25 0;
#X connect 19 1 23 0;
#X connect 20 0 4 0;
#X connect 21 0 28 0;
#X connect 21 1 19 0;
#X connect 22 0 4 0;
#X connect 23 0 20 1;
#X connect 23 0 24 0;
#X connect 24 0 22 1;
#X connect 25 0 22 1;
#X connect 25 0 27 0;
#X connect 25 0 17 0;
#X connect 27 0 20 1;
#X connect 28 0 26 0;
#X connect 28 0 17 0;
#X connect 28 0 20 0;
#X connect 29 0 21 0;
#X connect 30 0 31 0;
#X connect 31 0 32 3;
#X connect 32 0 8 0;
#X connect 32 1 9 0;
#X connect 34 0 1 0;
#X connect 35 0 1 0;
#X connect 36 0 1 0;
#X connect 37 0 28 1;
#X connect 38 0 30 0;
#X connect 39 0 37 0;
