#N canvas 827 239 527 327 12;
#N canvas 0 22 450 278 (subpatch) 0;
#X text 0 0 plugdatainfo <?xml version="1.0" encoding="UTF-8"?> <PlugDataInfo/>
;
#X coords 0 1 100 -1 1 1 1;
#X restore 0 0 graph;
#X obj 546 441 f 45;
#X obj 534 518 %;
#X obj 9 0 bng 25 250 50 0 empty empty empty 17 7 0 10 #191919 #ffffff
#ffffff;
#X obj 368 724 f;
#X obj 380 803 + 1;
#X obj 603 796 f;
#X obj 500 844 nbx 9 21 -1e+37 1e+37 0 0 empty empty empty 0 -8 0 10
#191919 #ffffff #ffffff 0 256;
#X obj 570 640 bng 25 250 50 0 empty empty empty 17 7 0 10 #191919
#ffffff #ffffff;
#X obj 434 493 t f f;
#X obj 434 347 inlet;
#X obj 556 391 loadbang;
#X obj 506 925 outlet;
#X obj 642 533 route 1 3 6 8 10 13;
#X obj 645 832 print sscaler;
#X obj 763 611 route 2 9;
#X obj 467 724 f;
#X obj 486 792 + 2;
#X obj 629 640 bng 25 250 50 0 empty empty empty 17 7 0 10 #191919
#ffffff #ffffff;
#X obj 706 693 bng 25 250 50 0 empty empty empty 17 7 0 10 #191919
#ffffff #ffffff;
#X connect 1 0 2 1;
#X connect 2 0 13 0;
#X connect 4 0 5 0;
#X connect 5 0 7 0;
#X connect 6 0 7 0;
#X connect 7 0 12 0;
#X connect 7 0 14 0;
#X connect 8 0 4 0;
#X connect 9 0 2 0;
#X connect 9 1 4 1;
#X connect 9 1 6 1;
#X connect 9 1 16 1;
#X connect 10 0 9 0;
#X connect 11 0 1 0;
#X connect 13 0 8 0;
#X connect 13 1 8 0;
#X connect 13 2 8 0;
#X connect 13 3 8 0;
#X connect 13 4 8 0;
#X connect 13 5 8 0;
#X connect 13 6 15 0;
#X connect 15 0 18 0;
#X connect 15 1 18 0;
#X connect 15 2 19 0;
#X connect 16 0 17 0;
#X connect 17 0 7 0;
#X connect 18 0 16 0;
#X connect 19 0 6 0;
